<svg preserveAspectRatio="none" overflow="visible" style="display: block;" width="354.965" height="250.621" viewBox="0 0 354.965 250.621" fill="none" xmlns="http://www.w3.org/2000/svg" xmlns:xlink="http://www.w3.org/1999/xlink">
<g id="Rectangle 8" filter="url(#filter0_ii_0_257)">
<path d="M0 7.99999C0 3.58172 3.58172 0 8 0H346.965C351.383 0 354.965 3.58172 354.965 8V242.621C354.965 247.039 351.383 250.621 346.965 250.621H8.00001C3.58174 250.621 0 247.039 0 242.621V7.99999Z" fill="url(#paint0_linear_0_257)"/>
<path d="M0 7.99999C0 3.58172 3.58172 0 8 0H346.965C351.383 0 354.965 3.58172 354.965 8V242.621C354.965 247.039 351.383 250.621 346.965 250.621H8.00001C3.58174 250.621 0 247.039 0 242.621V7.99999Z" fill="url(#pattern0_0_257)" fill-opacity="0.4"/>
</g>
<defs>
<filter id="filter0_ii_0_257" x="0" y="-4" width="354.965" height="258.621" filterUnits="userSpaceOnUse" color-interpolation-filters="sRGB">
<feFlood flood-opacity="0" result="BackgroundImageFix"/>
<feBlend mode="normal" in="SourceGraphic" in2="BackgroundImageFix" result="shape"/>
<feColorMatrix in="SourceAlpha" type="matrix" values="0 0 0 0 0 0 0 0 0 0 0 0 0 0 0 0 0 0 127 0" result="hardAlpha"/>
<feOffset dy="-4"/>
<feGaussianBlur stdDeviation="2"/>
<feComposite in2="hardAlpha" operator="arithmetic" k2="-1" k3="1"/>
<feColorMatrix type="matrix" values="0 0 0 0 0.1 0 0 0 0 0.1 0 0 0 0 0.1 0 0 0 0.25 0"/>
<feBlend mode="normal" in2="shape" result="effect1_innerShadow_0_257"/>
<feColorMatrix in="SourceAlpha" type="matrix" values="0 0 0 0 0 0 0 0 0 0 0 0 0 0 0 0 0 0 127 0" result="hardAlpha"/>
<feOffset dy="4"/>
<feGaussianBlur stdDeviation="2"/>
<feComposite in2="hardAlpha" operator="arithmetic" k2="-1" k3="1"/>
<feColorMatrix type="matrix" values="0 0 0 0 0.7 0 0 0 0 0.7 0 0 0 0 0.7 0 0 0 0.25 0"/>
<feBlend mode="normal" in2="effect1_innerShadow_0_257" result="effect2_innerShadow_0_257"/>
</filter>
<linearGradient id="paint0_linear_0_257" x1="177.483" y1="0" x2="177.483" y2="250.621" gradientUnits="userSpaceOnUse">
<stop stop-color="#0A0A0A"/>
<stop offset="1" stop-color="#171717"/>
</linearGradient>
<pattern id="pattern0_0_257" patternUnits="userSpaceOnUse" patternTransform="matrix(14.1421 0 0 14.1421 -0.141431 -0.14141)" preserveAspectRatio="none" viewBox="-0.707153 -0.707048 70.7107 70.7107" width="1" height="1">
<use xlink:href="#pattern0_0_257_inner" transform="translate(-70.7107 -70.7107)"/>
<use xlink:href="#pattern0_0_257_inner" transform="translate(0 -70.7107)"/>
<use xlink:href="#pattern0_0_257_inner" transform="translate(-70.7107 0)"/>
<g id="pattern0_0_257_inner">
<line id="Line 2" x1="-0.353553" y1="70.3571" x2="70.3571" y2="-0.353553" stroke="#808080"/>
</g>
</pattern></defs>
</svg>
